<?xml version="1.0" standalone="no"?>
<!DOCTYPE svg PUBLIC "-//W3C//DTD SVG 20010904//EN"
 "http://www.w3.org/TR/2001/REC-SVG-20010904/DTD/svg10.dtd">
<svg version="1.0" xmlns="http://www.w3.org/2000/svg"
 width="280.000000pt" height="280.000000pt" viewBox="0 0 280.000000 280.000000"
 preserveAspectRatio="xMidYMid meet">
<metadata>
Created by potrace 1.11, written by Peter Selinger 2001-2013
</metadata>
<g transform="translate(0.000000,280.000000) scale(0.100000,-0.100000)"
fill="#000000" stroke="none">
<path d="M1377 2634 c-1 -1 -32 -4 -68 -8 -316 -29 -594 -270 -665 -574 -66
-283 46 -563 301 -755 85 -64 143 -146 150 -210 2 -24 0 -71 -6 -103 -41 -245
-18 -304 134 -341 137 -33 417 -14 498 34 51 30 65 99 43 218 -17 98 -17 158
3 207 22 56 126 209 182 267 155 161 224 329 223 540 -3 354 -302 680 -660
716 -77 8 -132 12 -135 9z"/>
<path d="M1111 537 c-48 -22 -47 -101 1 -130 31 -18 581 -18 614 1 27 14 44
60 34 87 -18 49 -24 49 -336 50 -161 0 -302 -4 -313 -8z"/>
<path d="M1122 339 c-25 -10 -43 -33 -44 -60 -4 -85 -1 -86 349 -84 285 0 293
1 314 22 29 29 27 69 -5 101 l-26 27 -285 0 c-157 0 -294 -3 -303 -6z"/>
</g>
</svg>
